<mxfile host="app.diagrams.net" agent="Mozilla/5.0 (Windows NT 10.0; Win64; x64) AppleWebKit/537.36 (KHTML, like Gecko) Chrome/135.0.0.0 Safari/537.36" version="26.2.5">
  <diagram name="Page-1" id="Nx71FTFSBczQG6J4QOKf">
    <mxGraphModel dx="676" dy="615" grid="0" gridSize="10" guides="1" tooltips="1" connect="1" arrows="1" fold="1" page="0" pageScale="1" pageWidth="850" pageHeight="1100" math="0" shadow="0">
      <root>
        <mxCell id="0" />
        <mxCell id="1" parent="0" />
        <mxCell id="BdkJ5j55k8YKmjehzGCX-1" value="" style="ellipse;whiteSpace=wrap;html=1;aspect=fixed;opacity=60;dashed=1;strokeWidth=3;strokeColor=#0000FF;" vertex="1" parent="1">
          <mxGeometry x="200" y="280" width="350" height="350" as="geometry" />
        </mxCell>
        <mxCell id="BdkJ5j55k8YKmjehzGCX-2" value="" style="shape=image;verticalLabelPosition=bottom;labelBackgroundColor=default;verticalAlign=top;aspect=fixed;imageAspect=0;image=data:image/png,iVBORw0KGgoAAAANSUhEUgAAAQkAAAC+CAMAAAARDgovAAABhlBMVEUuNDaK4jS6vbYkHTaJ4y8lLC67vLi8u7qd1G8pLzGP30Ka1miE1zST2067u7ljZ2ggJyolLTdscHGB0DW2wKqZ12KQ3Umho6Ox44eM4Dr29vSBhIR4vzQmITasyZGXmplGTE1tZyzh4t+FiIiGfSZ+dSVOUlNJSjE+QTNjYCk/REbU1dPLzMtzayyOgyA2OzR1eXmpwpE5PkBWWlu1wakXICOgoqF8yTSttKcpKDausK9dYWIiKzfTAAAtOy4gJS2csImK6SlekDVgXGtUUjCajR8qMCjAuX1VfjdQnwCGq2mIuWnB7Zyyw6BRVEl7dzdwbT1CP05prCpknzUxTSxEGi+VAR5gEim4AAtXSC49UymVFRcxTTfYxwernhtEXCjy2AC9qhVKWDJ1ghdEgRRKkgg8ax9bjDMeLx8DDht1fXSmzoVEaC4UCCo0L0SooFTQx3qRkHZWVTiqo2jc2Lz278p1bAdGcjc7HDNWcSOGGxxwGiSaixaJs2ikz4CJw1WppoaGh3m0cKYkAAAMcklEQVR4nO2dj3vTxhnHL8GyuRAsWRjURA0SEVFA+YGQiEnsEEpINiilrIR2W1sG3QpZW9qu69ZupbTdf767k2VJd7Zkk7sEOfd94Hmss/zq9Inufe9O9wO8N32mUNPDaCal6ftNpK8q+PMZm1LH8bIJ7z/4QzZBNakz7A/erkxMTFTOYrPNcxMja6ZY4K3K6HaLL9ysTk5WzxPT0xCCtKDrKNmESwsrjUxCaGbPAGCuS6I+ieyeE5HlCVEkJhMS1E0xJMClhQvDkqgSEgJyfBQkAAioY5oEYkH/ZExJ0GJJMJIkJAlJQpKQJCQJSUKSyIiuNx3bmlUQUjfKkLA7NIqxJCHbHZKEJCFJYEkSsSSJWPlR1KYSmCjKnDGmJBgd3zqmJCFJSBLnb1WQJAlE4uEe0hlJonr10Ycf/XHruiRRvfrxn27c+LMkIUlgxSQ+/OTlp5IE9hMXH/+FITFMu4M+o/Qknjx++vTB65AYtxbY1UefPX38V0kC+wn4t8XXKh3jR+Lzu88+vg5gVq6jZROOAYknz+7efXG9tkRpnjpeHn8Sjz5+9nzr+tJsgeYfrFDvO9Rxed9R6ZLYu3Pnzv4ZxyrSzo6mpKVlD5FOZEgIGnE2M8Vf56IWGBn8d1r3i2QW61di9xQhcVpAjqemwGRNhCaxquRjtV0/uGrXiK06sSskx03QnBSs9b+vaQfWF+9UBWfz2iGQ2AIH183xIEG7v9fQoTwTQkodMR75ifUvh3CIhbpPbEU46iJy3ATnT4oQiR33T+GP94qj6BB6l5j9isSOX0Tk+BR4i3S7ctZE0qN7a3vj4A5Tu/kCm70V1SemBOS4UhHeyz/Nw2ECsHG9UsY6ZopEZX+DC4nGi4lyk6js8QGBWh7blRKSqMxcIzNdbs1s8wKBUNyZviW03fFL8eSn0XWd1FKubm/xA4FcxZX9e5Pr66jdMdRsrFEFjK9P8Nc3uuu6HZ0nB8IiMjj3TW35A95Zvg0MjXN2sbyOAqGnMwNM+Qh687MuZ9tQLRkJUrkoFQnfDUOVP4nAaCO5JSIR5dineyMPKvwwIKlBeUh4ugKg7fMvHaqOFJTomcAuQggJiJvopfIT2EWIIEFULhKaongCSJQudgQO7rHm7jFl7IhVztiBalYiYgeSjB1Y0SvlkpGQsQNrzGNH9GQOkYJjh2majtDYoWSvDJm8sCl5yicBUY0uObJDIjs3xcWyUY6RhMYOFV/KS76KshImi3zAbkrq16h2OhBMDgkF3ajuGL2RDFB1iJKhDWxKYJIEE5WONU0LBMUOFccOC18oaezC6MpOwiZO6bFRLMtUQ29AngaTgL7lmHqYms0Lo/dyKUtsSvfdnTiP2Ysdttb/yjkpCgh9xzLs/oZjElDTQBB4qbOglvcwFegNjR24uKf/8LYX4PskX3VJQNdotSz0FHAq2aR0vPGxw8PvKdF945tOSgd6KLTs03UQBeRdpoDYgUNHnVu7IxrIRD6Ka3eIiR12CdsdgmpWnTh2lIeE6Nhx7EkQlYuEqHbHGlKZSASkCigidtTbdX6xIyUZO3qmy+YnOmqnU7rYIaT3TsaOjI6MRGNkQRQ7oODYwdkHFZNobF66MKpWFoX1WZHR8Dh2qPQ6xfnyQEGbqoAEbIDLq7sXR9ai+NhhOSNJV3zfzvub55JobO4sIAy7Fxeyoo9pffuP7wL8rlxIuwMriHtqBkjz1uhvUU50y0Ktz0FZGkwClYoVhGF198KVzawTuIn+bfb3D9H3xmwNHOn7DsUyXLaTCWo2AE5nAIsBJEipWEWPw8LiJjPPGXcvp/NBW9aM2To4otgBFQ2nr1lLbaPvT0PT0Pt2ePclgUrFRVIqdlgMALrLa1+Y7eRHikudEZE4inYHuqLTNhX0TLQ8bUD3rAJCGPoB48FYEplS0deWk3kmlM58O2sWk4CW6QiKHbV6ze1b24bAsXSPhIgAxXB/kA0IAt9ybEC9qMmSiEvFz/1KRZwZX9fVXj6gOj87n4WJSSgtJONw2x2BoWvdRDxdqp5nRwttRXe1dBlXQet3V3rqxop+pSK5oO8szydvQcKOYWfXu4xKh6Ae3TCOHQwJzQhj8JrVbht5JPCDATuOoW8mUsHvVxOhUrF6AWzm30BryVDt3pFiO1r2fKEec2DsQPWF3hMIVV1VQ/qntBqb//w+de/fZkjsPhhcKmIFpm86yVOgWXSejiZ2aK3ks+I79Xkr9+KNzSsru6urqVrQd5nS4VmWXpQLt260jN7qrprq0E5aaOkYFDs020nlUV9u6x4YrEbj8kXEYXflcqIvsx5Ts80OtPOq6FA1AtsO4vN1izmXeExh7ztq9T6xA4X2+fnl9BtQxzIH2WhsLiJ3uLq7sJOpHzJRVIHQb/n2wLwgR6NA4hlQHbZjOeyf/Shih+LPziclFroIRf9XwahUXNjFjuAyaORF0a5ZoKJCFgyoliprWmBhN+Bbhun2qb90a1ZiWuV4HEC/2KHpYYJdW+7Yer3Pn6FXKi4x7nBQbVtB0dlhlnomX7kta4nUWlxP6QvriGJH6lhrtxzDoEnEpaJ/JSGnLaq5+H0xe69BGFptG7Ltjd4PDyd25PUU3XRV9yaVBkip2B1USchrlUPkMnTLD6gfQtTKcfNagmvi2x3Bv/79YGU0RaVicCWhqM9KCfyWS+9IZdtsSkpBG7c7HMcRETvIROqwceGHgj4SRqjauNPIqSsV994hl+GP1j1k1lDsEDtGt7EycjcaalDmPqFD9ejC0ZYFIKXDD4LAFRQ7wuA1OpmLqs4ievkjjylopssoAwtHMyyMhMjYIULiSAiNHdzNiiMBRc3vwLFjmd7/g4dEkRAcO0pEAuhATOzAg6FDet9BHhIaO4S9K+duFcjYkah0sWNNxo5IOHZUBccOZlj+a0tknxXn2JEa7t8jYePGo+nzWB2g6zHFzA0kM2l4xQ4PPbe4zZgdwe7Zbhh2Ut1U8HWfkNhjvontjuwspkDthC4eZQKyfiJ7Eag7fsfTMhNbimda4cO1w4gdzKWHmAemaNBVTcujTul+HOwxA1f1rZaVPCUumXmkJq/GIZMC8JoIel187LB9fCE/1Z3difKSmgdGpyim1UJ/Xbu/4dzeO1w+vB5BGEbrm3ZSV49SUq4cLw+h1kX2WS0jhdAjyPUUie7qqykSTIod5MxiGiWKDjMPLC4dCh5nJTJ2sKWDmQfGpuSaFtfuEOMnyDRM7laBbHekDMt2R1ey3RFLWLvDEjNG16tFsYO3XYF9VnjQQOuNb3ekTYsrHWLelZO3bNytghJ6TBk7hKtssQOWLnYIGmcFXbwLyryIdTfLRqJDdj7hH53LVzpI7ODWZ5WWSI/5JvZZ5RhW+a8o/LUxWztB6hP6BudMb2zgpjac45xjotvgLS5LNM+kNTV15to60tW9T+d4ctjaPonNrgtaZZrHyuOVh/vb+/t3kH78Ef1/8XCiu/L4BLcl2AGY258Ru/I4FxLbT559euX5i42Fzy7PffLJf/YmeqvRPzxeq9FX9raeb31+9+5/nz59/NONGx8lJBAkXjsUlGKvhspe4/kGIvECkXh548ZPKRJl2rWCw04mt/bmHm3A50/mdn5e3Hz58sR2dicTeHBFO5lUhO5k8tXZUwfXvXexXr169e6re0gnT0W72xDT90KVg16R6/xCSJzkkGNGZ0ETz9SuUhuRFRwzXycbM1UjRQdkT7N1VT+41Ps1cqHoGqNlbqjjQ9kZbUvhUDrGYz8wDg5zTEgc/JE4nGeiXhUgYjz62ObhMNV3arRdvqo3wXvnTgtQtL9oZHoYj1kE4vavxNRJEjvOisjxaVSzEqCZpD5RmYa0x1SofYjBpfcLSbxN7MbtDgESvh8YqmQy7o/uwln8oVm0Qe/syXLuvptPgtmme/GH35azWlqiEpZPjSUJmyaxcPlmdraMa1LLq5wo6Y7Mo5PITsmBLr2MbVn3ppYkepIkYo3oMVkSzrEgAQJqAARDAnj0EIkxJUFPxGZJMFO1x5UEpT4kaEkSkoQkIUlIEpKEJBFJ1ie6CtyiOiZ9xriSkO2O+D5lW1SSkCQkCQ4kjofHZIa2s1GUGco5piRkzWqQjnFtW5KQJCQJSUKS6EmSiCVJxJI1q1gHrW0zS+YdDonemCtuqsw0qzGJyjSzvqztrKUPNWZMjTZwTE1dIIneKMRzw2hqKM1MXVtvNifPT+DP53zfzMh3jEyK/7/vv/Nzz0ApXRKTTWR3aBIzI2jq/2ZDq3XPxFdxAAAAAElFTkSuQmCC;opacity=10;" vertex="1" parent="1">
          <mxGeometry x="235.53" y="355" width="278.95" height="200" as="geometry" />
        </mxCell>
        <mxCell id="BdkJ5j55k8YKmjehzGCX-7" style="edgeStyle=none;rounded=0;orthogonalLoop=1;jettySize=auto;html=1;exitX=0;exitY=1;exitDx=0;exitDy=0;entryX=0;entryY=1;entryDx=0;entryDy=0;strokeColor=#FF0000;strokeWidth=3;align=center;verticalAlign=middle;fontFamily=Helvetica;fontSize=11;fontColor=default;labelBackgroundColor=default;endArrow=classic;" edge="1" parent="1" source="BdkJ5j55k8YKmjehzGCX-1" target="BdkJ5j55k8YKmjehzGCX-5">
          <mxGeometry relative="1" as="geometry" />
        </mxCell>
        <mxCell id="BdkJ5j55k8YKmjehzGCX-8" style="edgeStyle=none;rounded=0;orthogonalLoop=1;jettySize=auto;html=1;exitX=0.5;exitY=1;exitDx=0;exitDy=0;entryX=0.5;entryY=1;entryDx=0;entryDy=0;strokeColor=#FF0000;strokeWidth=3;align=center;verticalAlign=middle;fontFamily=Helvetica;fontSize=11;fontColor=default;labelBackgroundColor=default;endArrow=classic;" edge="1" parent="1" source="BdkJ5j55k8YKmjehzGCX-1" target="BdkJ5j55k8YKmjehzGCX-5">
          <mxGeometry relative="1" as="geometry" />
        </mxCell>
        <mxCell id="BdkJ5j55k8YKmjehzGCX-9" style="edgeStyle=none;rounded=0;orthogonalLoop=1;jettySize=auto;html=1;exitX=1;exitY=1;exitDx=0;exitDy=0;entryX=1;entryY=1;entryDx=0;entryDy=0;strokeColor=#FF0000;strokeWidth=3;align=center;verticalAlign=middle;fontFamily=Helvetica;fontSize=11;fontColor=default;labelBackgroundColor=default;endArrow=classic;" edge="1" parent="1" source="BdkJ5j55k8YKmjehzGCX-1" target="BdkJ5j55k8YKmjehzGCX-5">
          <mxGeometry relative="1" as="geometry" />
        </mxCell>
        <mxCell id="BdkJ5j55k8YKmjehzGCX-10" style="edgeStyle=none;rounded=0;orthogonalLoop=1;jettySize=auto;html=1;exitX=1;exitY=0.5;exitDx=0;exitDy=0;strokeColor=#FF0000;strokeWidth=3;align=center;verticalAlign=middle;fontFamily=Helvetica;fontSize=11;fontColor=default;labelBackgroundColor=default;endArrow=classic;" edge="1" parent="1" source="BdkJ5j55k8YKmjehzGCX-1" target="BdkJ5j55k8YKmjehzGCX-5">
          <mxGeometry relative="1" as="geometry" />
        </mxCell>
        <mxCell id="BdkJ5j55k8YKmjehzGCX-11" style="edgeStyle=none;rounded=0;orthogonalLoop=1;jettySize=auto;html=1;exitX=1;exitY=0;exitDx=0;exitDy=0;strokeColor=#FF0000;strokeWidth=3;align=center;verticalAlign=middle;fontFamily=Helvetica;fontSize=11;fontColor=default;labelBackgroundColor=default;endArrow=classic;" edge="1" parent="1" source="BdkJ5j55k8YKmjehzGCX-1" target="BdkJ5j55k8YKmjehzGCX-5">
          <mxGeometry relative="1" as="geometry" />
        </mxCell>
        <mxCell id="BdkJ5j55k8YKmjehzGCX-12" style="edgeStyle=none;rounded=0;orthogonalLoop=1;jettySize=auto;html=1;exitX=0.5;exitY=0;exitDx=0;exitDy=0;strokeColor=#FF0000;strokeWidth=3;align=center;verticalAlign=middle;fontFamily=Helvetica;fontSize=11;fontColor=default;labelBackgroundColor=default;endArrow=classic;" edge="1" parent="1" source="BdkJ5j55k8YKmjehzGCX-1" target="BdkJ5j55k8YKmjehzGCX-5">
          <mxGeometry relative="1" as="geometry" />
        </mxCell>
        <mxCell id="BdkJ5j55k8YKmjehzGCX-13" style="edgeStyle=none;rounded=0;orthogonalLoop=1;jettySize=auto;html=1;exitX=0;exitY=0;exitDx=0;exitDy=0;strokeColor=#FF0000;strokeWidth=3;" edge="1" parent="1" source="BdkJ5j55k8YKmjehzGCX-1" target="BdkJ5j55k8YKmjehzGCX-5">
          <mxGeometry relative="1" as="geometry" />
        </mxCell>
        <mxCell id="BdkJ5j55k8YKmjehzGCX-14" style="edgeStyle=none;rounded=0;orthogonalLoop=1;jettySize=auto;html=1;exitX=0;exitY=0.5;exitDx=0;exitDy=0;entryX=0;entryY=0.5;entryDx=0;entryDy=0;strokeColor=#FF0000;strokeWidth=3;align=center;verticalAlign=middle;fontFamily=Helvetica;fontSize=11;fontColor=default;labelBackgroundColor=default;endArrow=classic;" edge="1" parent="1" source="BdkJ5j55k8YKmjehzGCX-1" target="BdkJ5j55k8YKmjehzGCX-5">
          <mxGeometry relative="1" as="geometry" />
        </mxCell>
        <mxCell id="BdkJ5j55k8YKmjehzGCX-5" value="" style="ellipse;whiteSpace=wrap;html=1;" vertex="1" parent="1">
          <mxGeometry x="335" y="418" width="80" height="80" as="geometry" />
        </mxCell>
        <mxCell id="BdkJ5j55k8YKmjehzGCX-15" value="&lt;font style=&quot;font-size: 18px;&quot;&gt;SB&lt;/font&gt;" style="text;html=1;align=center;verticalAlign=middle;whiteSpace=wrap;rounded=0;" vertex="1" parent="1">
          <mxGeometry x="362.5" y="243" width="25" height="26" as="geometry" />
        </mxCell>
        <mxCell id="BdkJ5j55k8YKmjehzGCX-16" value="&lt;font style=&quot;font-size: 18px;&quot;&gt;NB&lt;/font&gt;" style="text;html=1;align=center;verticalAlign=middle;whiteSpace=wrap;rounded=0;" vertex="1" parent="1">
          <mxGeometry x="362.5" y="649" width="25" height="26" as="geometry" />
        </mxCell>
        <mxCell id="BdkJ5j55k8YKmjehzGCX-17" value="&lt;font style=&quot;font-size: 18px;&quot;&gt;WB&lt;/font&gt;" style="text;html=1;align=center;verticalAlign=middle;whiteSpace=wrap;rounded=0;" vertex="1" parent="1">
          <mxGeometry x="577" y="442" width="25" height="26" as="geometry" />
        </mxCell>
        <mxCell id="BdkJ5j55k8YKmjehzGCX-18" value="&lt;font style=&quot;font-size: 18px;&quot;&gt;EB&lt;/font&gt;" style="text;html=1;align=center;verticalAlign=middle;whiteSpace=wrap;rounded=0;" vertex="1" parent="1">
          <mxGeometry x="154" y="442" width="25" height="26" as="geometry" />
        </mxCell>
        <mxCell id="BdkJ5j55k8YKmjehzGCX-19" value="&lt;font style=&quot;font-size: 18px;&quot;&gt;SE&lt;/font&gt;" style="text;html=1;align=center;verticalAlign=middle;whiteSpace=wrap;rounded=0;" vertex="1" parent="1">
          <mxGeometry x="217" y="305" width="25" height="26" as="geometry" />
        </mxCell>
        <mxCell id="BdkJ5j55k8YKmjehzGCX-20" value="&lt;font style=&quot;font-size: 18px;&quot;&gt;SW&lt;/font&gt;" style="text;html=1;align=center;verticalAlign=middle;whiteSpace=wrap;rounded=0;" vertex="1" parent="1">
          <mxGeometry x="514.48" y="305" width="25" height="26" as="geometry" />
        </mxCell>
        <mxCell id="BdkJ5j55k8YKmjehzGCX-21" value="&lt;font style=&quot;font-size: 18px;&quot;&gt;NE&lt;/font&gt;" style="text;html=1;align=center;verticalAlign=middle;whiteSpace=wrap;rounded=0;" vertex="1" parent="1">
          <mxGeometry x="217" y="579" width="25" height="26" as="geometry" />
        </mxCell>
        <mxCell id="BdkJ5j55k8YKmjehzGCX-22" value="&lt;span style=&quot;font-size: 18px;&quot;&gt;NW&lt;/span&gt;" style="text;html=1;align=center;verticalAlign=middle;whiteSpace=wrap;rounded=0;" vertex="1" parent="1">
          <mxGeometry x="520" y="579" width="25" height="26" as="geometry" />
        </mxCell>
        <mxCell id="BdkJ5j55k8YKmjehzGCX-28" value="" style="group;rotation=40;strokeWidth=4;" vertex="1" connectable="0" parent="1">
          <mxGeometry x="203" y="383" width="20" height="19" as="geometry" />
        </mxCell>
        <mxCell id="BdkJ5j55k8YKmjehzGCX-26" style="edgeStyle=none;rounded=0;orthogonalLoop=1;jettySize=auto;html=1;exitX=0.5;exitY=1;exitDx=0;exitDy=0;endArrow=none;startFill=0;strokeWidth=2;" edge="1" parent="BdkJ5j55k8YKmjehzGCX-28">
          <mxGeometry relative="1" as="geometry">
            <mxPoint x="15" y="19" as="targetPoint" />
            <mxPoint x="13" y="1" as="sourcePoint" />
          </mxGeometry>
        </mxCell>
        <mxCell id="BdkJ5j55k8YKmjehzGCX-27" style="edgeStyle=none;rounded=0;orthogonalLoop=1;jettySize=auto;html=1;exitX=0.5;exitY=1;exitDx=0;exitDy=0;endArrow=none;startFill=0;strokeWidth=2;" edge="1" parent="BdkJ5j55k8YKmjehzGCX-28">
          <mxGeometry relative="1" as="geometry">
            <mxPoint x="-4" y="9" as="targetPoint" />
            <mxPoint x="13" y="1" as="sourcePoint" />
          </mxGeometry>
        </mxCell>
        <mxCell id="BdkJ5j55k8YKmjehzGCX-31" value="" style="group;rotation=-200;strokeWidth=4;" vertex="1" connectable="0" parent="1">
          <mxGeometry x="525" y="380" width="20" height="19" as="geometry" />
        </mxCell>
        <mxCell id="BdkJ5j55k8YKmjehzGCX-32" style="edgeStyle=none;rounded=0;orthogonalLoop=1;jettySize=auto;html=1;exitX=0.5;exitY=1;exitDx=0;exitDy=0;endArrow=none;startFill=0;strokeWidth=2;" edge="1" parent="BdkJ5j55k8YKmjehzGCX-31">
          <mxGeometry relative="1" as="geometry">
            <mxPoint x="-1" y="8" as="targetPoint" />
            <mxPoint x="16" y="17" as="sourcePoint" />
          </mxGeometry>
        </mxCell>
        <mxCell id="BdkJ5j55k8YKmjehzGCX-33" style="edgeStyle=none;rounded=0;orthogonalLoop=1;jettySize=auto;html=1;exitX=0.5;exitY=1;exitDx=0;exitDy=0;endArrow=none;startFill=0;strokeWidth=2;" edge="1" parent="BdkJ5j55k8YKmjehzGCX-31">
          <mxGeometry relative="1" as="geometry">
            <mxPoint x="16" y="-3" as="targetPoint" />
            <mxPoint x="16" y="17" as="sourcePoint" />
          </mxGeometry>
        </mxCell>
        <mxCell id="BdkJ5j55k8YKmjehzGCX-34" value="" style="group;rotation=-105;strokeWidth=4;" vertex="1" connectable="0" parent="1">
          <mxGeometry x="439" y="604" width="20" height="19" as="geometry" />
        </mxCell>
        <mxCell id="BdkJ5j55k8YKmjehzGCX-35" style="edgeStyle=none;rounded=0;orthogonalLoop=1;jettySize=auto;html=1;exitX=0.5;exitY=1;exitDx=0;exitDy=0;endArrow=none;startFill=0;strokeWidth=2;" edge="1" parent="BdkJ5j55k8YKmjehzGCX-34">
          <mxGeometry relative="1" as="geometry">
            <mxPoint x="13" y="-2" as="targetPoint" />
            <mxPoint x="2" y="15" as="sourcePoint" />
          </mxGeometry>
        </mxCell>
        <mxCell id="BdkJ5j55k8YKmjehzGCX-36" style="edgeStyle=none;rounded=0;orthogonalLoop=1;jettySize=auto;html=1;exitX=0.5;exitY=1;exitDx=0;exitDy=0;endArrow=none;startFill=0;strokeWidth=2;" edge="1" parent="BdkJ5j55k8YKmjehzGCX-34">
          <mxGeometry relative="1" as="geometry">
            <mxPoint x="22" y="16" as="targetPoint" />
            <mxPoint x="2" y="15" as="sourcePoint" />
          </mxGeometry>
        </mxCell>
        <mxCell id="BdkJ5j55k8YKmjehzGCX-37" value="" style="group;rotation=-15;strokeWidth=4;" vertex="1" connectable="0" parent="1">
          <mxGeometry x="206" y="515" width="20" height="19" as="geometry" />
        </mxCell>
        <mxCell id="BdkJ5j55k8YKmjehzGCX-38" style="edgeStyle=none;rounded=0;orthogonalLoop=1;jettySize=auto;html=1;exitX=0.5;exitY=1;exitDx=0;exitDy=0;endArrow=none;startFill=0;strokeWidth=2;" edge="1" parent="BdkJ5j55k8YKmjehzGCX-37">
          <mxGeometry relative="1" as="geometry">
            <mxPoint x="21" y="11" as="targetPoint" />
            <mxPoint x="5" y="1" as="sourcePoint" />
          </mxGeometry>
        </mxCell>
        <mxCell id="BdkJ5j55k8YKmjehzGCX-39" style="edgeStyle=none;rounded=0;orthogonalLoop=1;jettySize=auto;html=1;exitX=0.5;exitY=1;exitDx=0;exitDy=0;endArrow=none;startFill=0;strokeWidth=2;" edge="1" parent="BdkJ5j55k8YKmjehzGCX-37">
          <mxGeometry relative="1" as="geometry">
            <mxPoint x="3" y="21" as="targetPoint" />
            <mxPoint x="5" y="1" as="sourcePoint" />
          </mxGeometry>
        </mxCell>
        <mxCell id="BdkJ5j55k8YKmjehzGCX-40" value="" style="group;rotation=75;strokeWidth=4;" vertex="1" connectable="0" parent="1">
          <mxGeometry x="293" y="289" width="20" height="19" as="geometry" />
        </mxCell>
        <mxCell id="BdkJ5j55k8YKmjehzGCX-41" style="edgeStyle=none;rounded=0;orthogonalLoop=1;jettySize=auto;html=1;exitX=0.5;exitY=1;exitDx=0;exitDy=0;endArrow=none;startFill=0;strokeWidth=2;" edge="1" parent="BdkJ5j55k8YKmjehzGCX-40">
          <mxGeometry relative="1" as="geometry">
            <mxPoint x="8" y="20" as="targetPoint" />
            <mxPoint x="18" y="4" as="sourcePoint" />
          </mxGeometry>
        </mxCell>
        <mxCell id="BdkJ5j55k8YKmjehzGCX-42" style="edgeStyle=none;rounded=0;orthogonalLoop=1;jettySize=auto;html=1;exitX=0.5;exitY=1;exitDx=0;exitDy=0;endArrow=none;startFill=0;strokeWidth=2;" edge="1" parent="BdkJ5j55k8YKmjehzGCX-40">
          <mxGeometry relative="1" as="geometry">
            <mxPoint x="-2" y="3" as="targetPoint" />
            <mxPoint x="18" y="4" as="sourcePoint" />
          </mxGeometry>
        </mxCell>
        <mxCell id="BdkJ5j55k8YKmjehzGCX-43" value="" style="group;rotation=135;strokeWidth=4;" vertex="1" connectable="0" parent="1">
          <mxGeometry x="429" y="283" width="20" height="19" as="geometry" />
        </mxCell>
        <mxCell id="BdkJ5j55k8YKmjehzGCX-44" style="edgeStyle=none;rounded=0;orthogonalLoop=1;jettySize=auto;html=1;exitX=0.5;exitY=1;exitDx=0;exitDy=0;endArrow=none;startFill=0;strokeWidth=2;" edge="1" parent="BdkJ5j55k8YKmjehzGCX-43">
          <mxGeometry relative="1" as="geometry">
            <mxPoint x="-1" y="13" as="targetPoint" />
            <mxPoint x="19" y="14" as="sourcePoint" />
          </mxGeometry>
        </mxCell>
        <mxCell id="BdkJ5j55k8YKmjehzGCX-45" style="edgeStyle=none;rounded=0;orthogonalLoop=1;jettySize=auto;html=1;exitX=0.5;exitY=1;exitDx=0;exitDy=0;endArrow=none;startFill=0;strokeWidth=2;" edge="1" parent="BdkJ5j55k8YKmjehzGCX-43">
          <mxGeometry relative="1" as="geometry">
            <mxPoint x="10" y="-4" as="targetPoint" />
            <mxPoint x="19" y="14" as="sourcePoint" />
          </mxGeometry>
        </mxCell>
        <mxCell id="BdkJ5j55k8YKmjehzGCX-46" value="" style="group;rotation=-150;strokeWidth=4;" vertex="1" connectable="0" parent="1">
          <mxGeometry x="527" y="508" width="20" height="19" as="geometry" />
        </mxCell>
        <mxCell id="BdkJ5j55k8YKmjehzGCX-47" style="edgeStyle=none;rounded=0;orthogonalLoop=1;jettySize=auto;html=1;exitX=0.5;exitY=1;exitDx=0;exitDy=0;endArrow=none;startFill=0;strokeWidth=2;" edge="1" parent="BdkJ5j55k8YKmjehzGCX-46">
          <mxGeometry relative="1" as="geometry">
            <mxPoint x="4" as="targetPoint" />
            <mxPoint x="9" y="19" as="sourcePoint" />
          </mxGeometry>
        </mxCell>
        <mxCell id="BdkJ5j55k8YKmjehzGCX-48" style="edgeStyle=none;rounded=0;orthogonalLoop=1;jettySize=auto;html=1;exitX=0.5;exitY=1;exitDx=0;exitDy=0;endArrow=none;startFill=0;strokeWidth=2;" edge="1" parent="BdkJ5j55k8YKmjehzGCX-46">
          <mxGeometry relative="1" as="geometry">
            <mxPoint x="23" y="6" as="targetPoint" />
            <mxPoint x="9" y="19" as="sourcePoint" />
          </mxGeometry>
        </mxCell>
        <mxCell id="BdkJ5j55k8YKmjehzGCX-49" value="" style="group;rotation=-60;strokeWidth=4;" vertex="1" connectable="0" parent="1">
          <mxGeometry x="299" y="606" width="20" height="19" as="geometry" />
        </mxCell>
        <mxCell id="BdkJ5j55k8YKmjehzGCX-50" style="edgeStyle=none;rounded=0;orthogonalLoop=1;jettySize=auto;html=1;exitX=0.5;exitY=1;exitDx=0;exitDy=0;endArrow=none;startFill=0;strokeWidth=2;" edge="1" parent="BdkJ5j55k8YKmjehzGCX-49">
          <mxGeometry relative="1" as="geometry">
            <mxPoint x="19" y="4" as="targetPoint" />
            <mxPoint x="1" y="7" as="sourcePoint" />
          </mxGeometry>
        </mxCell>
        <mxCell id="BdkJ5j55k8YKmjehzGCX-51" style="edgeStyle=none;rounded=0;orthogonalLoop=1;jettySize=auto;html=1;exitX=0.5;exitY=1;exitDx=0;exitDy=0;endArrow=none;startFill=0;strokeWidth=2;" edge="1" parent="BdkJ5j55k8YKmjehzGCX-49">
          <mxGeometry relative="1" as="geometry">
            <mxPoint x="13" y="23" as="targetPoint" />
            <mxPoint x="1" y="7" as="sourcePoint" />
          </mxGeometry>
        </mxCell>
      </root>
    </mxGraphModel>
  </diagram>
</mxfile>
